<svg version="1.2" xmlns="http://www.w3.org/2000/svg" viewBox="0 0 496 484" width="496" height="484">
	<title>github-svg</title>
	<style>
		.s0 { fill: #000000 } 
	</style>
	<path id="Layer" fill-rule="evenodd" class="s0" d="m496 244c0 110.9-67.8 205.8-167.8 239-12.7 2.3-17.3-5.6-17.3-12.1 0-8.2 0.3-49.9 0.3-83.6 0-23.5-7.8-38.5-17-46.4 55.9-6.3 114.8-14 114.8-110.5 0-27.4-9.8-41.2-25.8-58.9 2.6-6.5 11.1-33.2-2.6-67.9-20.9-6.6-69 27-69 27-20-5.6-41.5-8.5-62.8-8.5-21.3 0-42.8 2.9-62.8 8.5 0 0-48.1-33.5-69-27-13.7 34.6-5.2 61.4-2.6 67.9-16 17.6-23.6 31.4-23.6 58.9 0 96.2 56.4 104.3 112.3 110.5-7.2 6.6-13.7 17.7-16 33.7-14.3 6.6-51 17.7-72.9-20.9-13.7-23.8-38.6-25.8-38.6-25.8-24.5-0.3-1.6 15.4-1.6 15.4 16.4 7.5 27.8 36.6 27.8 36.6 14.7 44.8 84.7 29.8 84.7 29.8 0 21 0.3 55.2 0.3 61.4 0 6.5-4.5 14.4-17.3 12.1-99.7-33.4-169.5-128.3-169.5-239.2 0-138.7 106.1-244 244.8-244 138.7 0 251.2 105.3 251.2 244zm-355 138.6c3 0.9 4.9 3.2 4.3 5.2-0.6 2-3.6 3-6.2 2-3-0.6-5-2.9-4.3-4.9 0.7-2 3.6-3 6.2-2.3zm43.9 3.5c0.3 2-1.7 3.9-4.6 4.6-3 0.7-5.6-0.6-5.9-2.6-0.3-2.3 1.7-4.2 4.6-4.9 2.9-0.3 5.6 1 5.9 2.9zm-19 3.3c0 2-2.3 3.6-5.2 3.6-3.3 0.3-5.6-1.3-5.6-3.6 0-2 2.3-3.6 5.2-3.6 3-0.3 5.6 1.3 5.6 3.6zm-63.5-43.5c1.7 1.9 2 4.2 0.7 5.2-1.3 1.3-3.6 0.6-5.2-1-1.7-1.9-2-4.2-0.7-5.2 1.3-1.3 3.6-0.6 5.2 1zm-11.7-9.8c2 1 3 2.6 2.3 3.9-0.7 1.4-2.7 1.7-4.3 0.7-2-1-3-2.6-2.3-3.9 0.7-1 2.3-1.3 4.3-0.7zm34.6 37.3c2 1.9 2.6 4.9 1.3 6.2-1.3 1.6-4.2 1.3-6.5-1-2.3-1.9-2.9-4.9-1.3-6.2 1.3-1.6 4.3-1.3 6.5 1zm-12.3-13.7c1.6 2.3 1.6 4.9 0 6.2-1.3 1-4 0-5.6-2.3-1.6-2.3-1.6-4.9 0-5.9 1.6-1.3 4.2-0.3 5.6 2z"/>
</svg>